<?xml version="1.0" encoding="utf-8"?>
<!-- Generator: Adobe Illustrator 22.1.0, SVG Export Plug-In . SVG Version: 6.00 Build 0)  -->
<svg version="1.1" id="Layer_1" xmlns="http://www.w3.org/2000/svg" xmlns:xlink="http://www.w3.org/1999/xlink" x="0px" y="0px"
	 viewBox="0 0 124 30.3" style="enable-background:new 0 0 124 30.3;" xml:space="preserve">
<g transform="translate(9 6)">
	<g transform="matrix(1, 0, 0, 1, -9, -6)">
		<path d="M108.1,14.7l14.7,15.6h-3.6c-0.2,0-0.3-0.1-0.4-0.3c-5-5.4-10.1-10.7-15.1-16.1c-0.1-0.1-0.2-0.2-0.3-0.4
			c0.3,0,0.5,0,0.7,0c1.5,0.1,3.1,0,4.6-0.2c2.4-0.4,4.2-2.5,4.3-5c0.4-2.9-1.7-5.6-4.6-6c-0.3,0-0.6-0.1-0.9,0
			c-1.6-0.1-3.3,0-4.9,0c-0.4,0-0.4,0.2-0.4,0.5c0,5.3,0,10.6,0,16c0,1.9,0,3.9,0,5.8c0,0.4-0.1,0.5-0.5,0.5c-0.6,0-1.2,0-1.8,0
			c-0.3,0-0.4-0.1-0.4-0.4c0-1.8,0-3.7,0-5.5c0-5.9,0-11.8,0-17.7c0-0.5,0.2-0.6,0.6-0.6c2.5,0,5,0,7.4,0c2.3-0.1,4.6,0.8,6.3,2.4
			c2.6,2.3,2.8,6.3,0.4,8.9c-0.4,0.5-1,0.9-1.5,1.2C111.4,14.2,109.8,14.6,108.1,14.7z"/>
	</g>
	<g transform="matrix(1, 0, 0, 1, -9, -6)">
		<path d="M40.9,8.7c0,2.4,0,4.7,0,7.1c0.1,5.2-4.1,9.5-9.4,9.6c-1.1,0-2.2-0.2-3.2-0.5c-3.2-0.9-5.6-3.6-6.3-6.9
			c-0.2-0.9-0.3-1.8-0.3-2.8c0-4.6,0-9.3,0-13.9c0-0.4,0.1-0.6,0.6-0.6c0.6,0,1.2,0,1.8,0c0.4,0,0.5,0.1,0.5,0.5c0,4.6,0,9.1,0,13.7
			c0,1.7,0.3,3.3,0.9,4.8c1.2,3.2,4.8,4.8,8.1,3.6c0,0,0.1,0,0.1,0c1.9-0.8,3.3-2.3,3.8-4.3c0.4-1.2,0.6-2.4,0.6-3.7
			c0-4.7,0-9.4,0-14.1c0-0.5,0.1-0.6,0.6-0.6c0.6,0,1.1,0,1.7,0c0.4,0,0.6,0.1,0.6,0.5C40.9,3.8,40.9,6.2,40.9,8.7L40.9,8.7z"/>
	</g>
	<g transform="matrix(1, 0, 0, 1, -9, -6)">
		<path d="M87.8,25.1c-2.2,0-4.4,0-6.6,0c-0.4,0-0.5-0.1-0.5-0.5c0-3.5,0-7,0-10.5c0-0.4-0.1-0.6-0.5-0.5c-0.7,0-1.4,0-2.1,0
			c-0.3,0-0.4-0.1-0.4-0.4c0-1.3,0-1.3,1.2-1.3c0.5,0,0.9,0,1.4,0c0.4,0,0.4-0.2,0.4-0.5c0-2.8,0-5.6,0-8.4c0-0.6,0-1.2,0-1.8
			c0-0.4,0.1-0.5,0.5-0.5c4.5,0,9,0,13.4,0c0.3,0,0.4,0.1,0.4,0.4c0,1.3,0,1.3-1.3,1.3c-3.2-0.1-6.5-0.1-9.7-0.2
			c-0.4,0-0.5,0.1-0.5,0.5c0,2.9,0,5.8,0,8.7c0,0.4,0.1,0.5,0.5,0.5c3.4,0,6.7-0.1,10.1-0.1c0.4,0,0.5,0.1,0.5,0.5
			c0,1.2,0,1.2-1.2,1.2c-3.1,0-6.2,0-9.4-0.1c-0.4,0-0.5,0.1-0.5,0.5c0,3,0,6,0,9c0,0.4,0.1,0.5,0.5,0.5c3.5-0.1,7-0.1,10.5-0.2
			c0.4,0,0.5,0.1,0.5,0.5c0,1.3,0,1.3-1.3,1.3L87.8,25.1z"/>
	</g>
	<g transform="matrix(1, 0, 0, 1, -9, -6)">
		<path d="M3.6,21.8c0-2.6,0-5.2,0-7.8c0-0.5-0.1-0.6-0.6-0.5c-0.9,0-1.8,0-2.6,0c-0.3,0-0.4-0.1-0.4-0.4c0-1.3,0-1.3,1.2-1.3
			c0.6,0,1.2,0,1.8,0c0.4,0,0.5-0.1,0.5-0.5c0-3.4,0-6.7,0-10.1c0-0.4,0.1-0.6,0.6-0.6c4.4,0,8.8,0,13.2,0c0.4,0,0.6,0.1,0.6,0.6
			c0,1.2,0,1.2-1.2,1.2C13.5,2.4,10.2,2.4,7,2.3c-0.4,0-0.6,0.1-0.6,0.5c0,2.9,0,5.8,0,8.7c0,0.4,0.1,0.5,0.5,0.5
			c3.3,0,6.7-0.1,10-0.1c0.4,0,0.5,0.1,0.5,0.5c0,1.2,0,1.2-1.2,1.2c-3.1,0-6.2,0-9.4-0.1c-0.4,0-0.5,0.1-0.5,0.5
			c0,5.2,0,10.5,0,15.7c0,0.4-0.1,0.6-0.5,0.5c-0.6,0-1.2,0-1.8,0c-0.4,0-0.5-0.1-0.5-0.5C3.6,27.1,3.6,24.5,3.6,21.8z"/>
	</g>
	<g transform="matrix(1, 0, 0, 1, -9, -6)">
		<path d="M46,12.9c0-3.9,0-7.7,0-11.6c0-0.4,0.1-0.6,0.5-0.5c0.6,0,1.3,0,1.9,0c0.2,0,0.3,0.1,0.3,0.3c0,0.1,0,0.3,0,0.4
			c0,7.1,0,14.3,0,21.4c0,0.5,0.1,0.6,0.6,0.6c3.5-0.1,7-0.1,10.5-0.2c0.4,0,0.5,0.1,0.5,0.5c0,1.3,0,1.3-1.2,1.3
			c-4.2,0-8.4,0-12.6,0c-0.5,0-0.6-0.1-0.6-0.6C46.1,20.6,46,16.8,46,12.9z"/>
	</g>
	<g transform="matrix(1, 0, 0, 1, -9, -6)">
		<path d="M66.1,12.1c0,3.6,0,7.2,0,10.8c0,0.5,0.1,0.6,0.6,0.6c3.5-0.1,7-0.1,10.4-0.2c0.4,0,0.5,0.1,0.5,0.5c0,1.3,0,1.3-1.3,1.3
			c-4.2,0-8.3,0-12.5,0c-0.4,0-0.5-0.1-0.5-0.5c0-7.8,0-15.5,0-23.3c0-0.4,0.1-0.5,0.5-0.5c0.6,0,1.2,0,1.8,0c0.4,0,0.5,0.1,0.5,0.5
			c0,2.9,0,5.7,0,8.6L66.1,12.1z"/>
	</g>
</g>
</svg>
