<?xml version="1.0" encoding="utf-8"?>
<!-- Generator: Adobe Illustrator 22.1.0, SVG Export Plug-In . SVG Version: 6.00 Build 0)  -->
<svg version="1.1" id="Layer_1" xmlns="http://www.w3.org/2000/svg" xmlns:xlink="http://www.w3.org/1999/xlink" x="0px" y="0px"
	 viewBox="0 0 15.8 15.8" style="enable-background:new 0 0 15.8 15.8;" xml:space="preserve">
<style type="text/css">
	.st0{fill:#03B2C6;}
	.st1{fill:#FFFFFF;}
</style>
<g id="Grupo_9024" transform="translate(-6297 -1411)">
	<circle id="Elipse_419" class="st0" cx="6304.9" cy="1418.9" r="7.9"/>
	<path id="Trazado_7178" class="st1" d="M6303.6,1419.8v3.7c0,0.2,0.1,0.3,0.3,0.3c0,0,0.1,0,0.1,0l1.9-1c0.1-0.1,0.2-0.2,0.2-0.3
		v-2.7l3.1-2.8c0.1-0.1,0.1-0.1,0.1-0.2v-1.6c0-0.2-0.1-0.3-0.3-0.3h-8.2c-0.2,0-0.3,0.1-0.3,0.3v1.6c0,0.1,0,0.2,0.1,0.2
		L6303.6,1419.8z M6301,1415.6h7.6v1.1l-3.1,2.8c-0.1,0.1-0.1,0.1-0.1,0.2v2.7l-1.3,0.6v-3.3c0-0.1,0-0.2-0.1-0.2l-3.1-2.8
		L6301,1415.6z"/>
</g>
</svg>
