<svg xmlns="http://www.w3.org/2000/svg" width="33" height="33" viewBox="0 0 33 33"><defs><style>.a{fill:#fff;}</style></defs><g transform="translate(0 31.625)"><path class="a" d="M32.312,490.667H.688a.688.688,0,1,0,0,1.375H32.312a.688.688,0,1,0,0-1.375Z" transform="translate(0 -490.667)"/></g><g transform="translate(1.375 23.375)"><path class="a" d="M26.146,362.667H22.021a.688.688,0,0,0-.688.688v8.25a.688.688,0,0,0,.688.687h4.125a.688.688,0,0,0,.688-.688v-8.25A.688.688,0,0,0,26.146,362.667Zm-.688,8.25h-2.75v-6.875h2.75v6.875Z" transform="translate(-21.333 -362.667)"/></g><g transform="translate(9.625 16.5)"><path class="a" d="M154.146,256h-4.125a.688.688,0,0,0-.688.688v15.125a.688.688,0,0,0,.688.688h4.125a.688.688,0,0,0,.688-.688V256.688A.688.688,0,0,0,154.146,256Zm-.688,15.125h-2.75v-13.75h2.75Z" transform="translate(-149.333 -256)"/></g><g transform="translate(17.875 19.25)"><path class="a" d="M282.146,298.667h-4.125a.688.688,0,0,0-.688.688v12.375a.688.688,0,0,0,.688.688h4.125a.688.688,0,0,0,.688-.688V299.355A.688.688,0,0,0,282.146,298.667Zm-.688,12.375h-2.75v-11h2.75Z" transform="translate(-277.333 -298.667)"/></g><g transform="translate(26.125 11)"><path class="a" d="M410.146,170.667h-4.125a.688.688,0,0,0-.687.688v20.625a.688.688,0,0,0,.688.688h4.125a.688.688,0,0,0,.688-.688V171.355A.688.688,0,0,0,410.146,170.667Zm-.688,20.625h-2.75v-19.25h2.75Z" transform="translate(-405.333 -170.667)"/></g><g transform="translate(1.375 12.375)"><path class="a" d="M24.083,192a2.75,2.75,0,1,0,2.75,2.75A2.753,2.753,0,0,0,24.083,192Zm0,4.125a1.375,1.375,0,1,1,1.375-1.375A1.376,1.376,0,0,1,24.083,196.125Z" transform="translate(-21.333 -192)"/></g><g transform="translate(9.625 5.5)"><path class="a" d="M152.083,85.333a2.75,2.75,0,1,0,2.75,2.75A2.753,2.753,0,0,0,152.083,85.333Zm0,4.125a1.375,1.375,0,1,1,1.375-1.375A1.376,1.376,0,0,1,152.083,89.458Z" transform="translate(-149.333 -85.333)"/></g><g transform="translate(17.875 8.25)"><path class="a" d="M280.083,128a2.75,2.75,0,1,0,2.75,2.75A2.753,2.753,0,0,0,280.083,128Zm0,4.125a1.375,1.375,0,1,1,1.375-1.375A1.376,1.376,0,0,1,280.083,132.125Z" transform="translate(-277.333 -128)"/></g><g transform="translate(26.125)"><path class="a" d="M408.083,0a2.75,2.75,0,1,0,2.75,2.75A2.753,2.753,0,0,0,408.083,0Zm0,4.125a1.375,1.375,0,1,1,1.375-1.375A1.376,1.376,0,0,1,408.083,4.125Z" transform="translate(-405.333)"/></g><g transform="translate(21.396 3.52)"><path class="a" d="M338.471,54.809a.688.688,0,0,0-.972,0l-5.335,5.335a.687.687,0,0,0,.972.972l5.335-5.335A.688.688,0,0,0,338.471,54.809Z" transform="translate(-331.963 -54.608)"/></g><g transform="translate(13.671 8.126)"><path class="a" d="M217.4,127.365l-4.417-1.259a.688.688,0,0,0-.377,1.323l4.417,1.259a.688.688,0,0,0,.377-1.323Z" transform="translate(-212.108 -126.078)"/></g><g transform="translate(4.894 8.848)"><path class="a" d="M82.343,137.532a.688.688,0,0,0-.965-.11l-5.184,4.133a.688.688,0,0,0,.429,1.225.694.694,0,0,0,.428-.148l5.184-4.133A.687.687,0,0,0,82.343,137.532Z" transform="translate(-75.935 -137.273)"/></g></svg>