<svg xmlns="http://www.w3.org/2000/svg" width="34.073" height="34.084" viewBox="0 0 34.073 34.084"><defs><style>.a{fill:#fff;}</style></defs><path class="a" d="M219.861,331.33a.666.666,0,1,0-.942,0A.667.667,0,0,0,219.861,331.33Zm0,0" transform="translate(-204.197 -308.213)"/><path class="a" d="M188.449,7.321A7.321,7.321,0,1,0,195.77,0,7.329,7.329,0,0,0,188.449,7.321Zm13.31,0a5.99,5.99,0,1,1-5.99-5.99A6,6,0,0,1,201.759,7.321Zm0,0" transform="translate(-175.937)"/><path class="a" d="M8.167,232.072a.665.665,0,0,0,.939.005l3.227-3.179a2.011,2.011,0,0,0,.474-2.065l.694-.669a1.985,1.985,0,0,1,1.386-.56h8.847a5.959,5.959,0,0,0,4.178-1.7c.046-.045-.351.423,6.036-7.21a2.662,2.662,0,0,0-4.051-3.455l-3.927,4.036a2.675,2.675,0,0,0-2.069-.991H16.479a8.586,8.586,0,0,0-3.333-.665,8.234,8.234,0,0,0-7.5,4.255,1.988,1.988,0,0,0-1.78.552L.7,223.6a.666.666,0,0,0,0,.939Zm4.979-15.12a7.265,7.265,0,0,1,2.93.61.664.664,0,0,0,.267.056H23.9a1.331,1.331,0,1,1,0,2.662H18.47a.665.665,0,1,0,0,1.331H23.9a2.658,2.658,0,0,0,2.639-3.01c3.8-3.905,4.335-4.454,4.358-4.481a1.331,1.331,0,1,1,2.032,1.72l-5.969,7.136a4.634,4.634,0,0,1-3.226,1.3H14.886a3.309,3.309,0,0,0-2.31.933l-.566.546L6.8,220.539a6.871,6.871,0,0,1,6.349-3.586ZM4.8,221.369a.664.664,0,0,1,.824-.094c.115.07-.216-.231,5.764,5.741a.667.667,0,0,1,0,.938l-2.751,2.71-6.539-6.589Zm0,0" transform="translate(-0.501 -198.185)"/><path class="a" d="M267.161,40.654v.78a2,2,0,0,0,.665,3.879.665.665,0,0,1,0,1.331,1.2,1.2,0,0,1-.864-.5.666.666,0,1,0-1.019.857,2.76,2.76,0,0,0,1.218.867v.777a.665.665,0,1,0,1.331,0v-.78a2,2,0,0,0-.665-3.879.666.666,0,0,1,0-1.331,1.069,1.069,0,0,1,.72.348.666.666,0,0,0,.926-.956,2.571,2.571,0,0,0-.98-.613v-.775a.665.665,0,1,0-1.331,0Zm0,0" transform="translate(-248.127 -37.326)"/></svg>