<svg xmlns="http://www.w3.org/2000/svg" width="27.903" height="26.522" viewBox="0 0 27.903 26.522">
    <g transform="translate(0 -12.676)">
        <g transform="translate(0 12.676)">
            <path d="M27.435,24.459l-2.357-2.148V15.189a.821.821,0,0,0-.821-.821H18.583a.821.821,0,0,0-.821.821v.456l-2.847-2.594a1.424,1.424,0,0,0-1.927,0L.469,24.459a1.431,1.431,0,0,0,.964,2.488h2v11.43a.821.821,0,0,0,.821.821h6.862a.821.821,0,0,0,.821-.821v-6.94h4.033v6.94a.821.821,0,0,0,.821.821h6.862a.821.821,0,0,0,.821-.821V26.947h2a1.431,1.431,0,0,0,.964-2.489Zm-3.784.847a.821.821,0,0,0-.821.821v11.43H17.61v-6.94a.821.821,0,0,0-.821-.821H11.115a.821.821,0,0,0-.821.821v6.94H5.073V26.127a.821.821,0,0,0-.821-.821H1.975L13.952,14.393,18.03,18.11A.821.821,0,0,0,19.4,17.5V16.009h4.033v6.664a.821.821,0,0,0,.268.607l2.224,2.026Z" fill="#fff" transform="translate(0 -12.676)"/>
        </g>
    </g>
</svg>
