<svg xmlns="http://www.w3.org/2000/svg" width="28.568" height="42.384" viewBox="0 0 28.568 42.384">
    <g transform="translate(-83.447)">
        <g transform="translate(83.447)">
            <path d="M111.394,34.341a.621.621,0,0,0-.621.621V40.8a.343.343,0,0,1-.343.343h-3.337V28.915a.621.621,0,0,0-1.242,0V41.142H99.131L101.08,39a1.113,1.113,0,0,0,.269-.893l0-.019L99.489,27.12l.5-.753a1.408,1.408,0,0,0,.889.385,1.087,1.087,0,0,0,.973-.6h0l1.958-3.924,4.46,1.727a4.3,4.3,0,0,1,2.5,3.91v4.2a.621.621,0,0,0,1.242,0v-4.2a5.541,5.541,0,0,0-3.277-5.06l-.012,0L101.3,19.925V18.185a5.817,5.817,0,0,0,2.2-3.827,2.688,2.688,0,0,0,1.579-.644,2.636,2.636,0,0,0,.275-3.719v-2.3a7.695,7.695,0,1,0-15.389,0v2.36a2.493,2.493,0,0,0-.64,1.662,2.631,2.631,0,0,0,.915,2,2.686,2.686,0,0,0,1.578.644,5.756,5.756,0,0,0,2.328,3.919v1.649L86.736,22.8l-.012,0a5.541,5.541,0,0,0-3.277,5.06V40.8a1.586,1.586,0,0,0,1.585,1.585h5.915a.621.621,0,0,0,0-1.242H89.611V28.915a.621.621,0,1,0-1.242,0V41.142H85.032a.343.343,0,0,1-.343-.343V27.865a4.3,4.3,0,0,1,2.5-3.91l4.456-1.728,1.958,3.924a1.087,1.087,0,0,0,.973.6,1.407,1.407,0,0,0,.889-.385l.5.753L94.113,38.086l0,.019a1.113,1.113,0,0,0,.269.893l1.949,2.144H93.844a.621.621,0,0,0,0,1.242h16.586a1.586,1.586,0,0,0,1.585-1.585V34.962A.621.621,0,0,0,111.394,34.341Zm-8.748-12.564-1.825,3.658-2.2-1.559,2.255-2.783Zm-3.67,3.871-.473.712H96.955l-.473-.712,1.247-.886Zm-3.584-5.522V18.964a6.3,6.3,0,0,0,2.348.445,5.829,5.829,0,0,0,2.322-.484v1.206l-2.333,2.88Zm9.366-8.409a1.391,1.391,0,0,1-.483,1.056,1.446,1.446,0,0,1-.717.33V10.331A1.4,1.4,0,0,1,104.758,11.717ZM91.771,13.1a1.4,1.4,0,0,1-1.2-1.386,1.474,1.474,0,0,1,1.2-1.354ZM91.8,9.1a3.069,3.069,0,0,0-.593.134V7.695a6.453,6.453,0,1,1,12.906,0V9.188a2.76,2.76,0,0,0-.56-.108c0-.6.005-.484-1.955-2.591a1.1,1.1,0,0,0-1.41-.172,11.97,11.97,0,0,1-7.236,1.948A1.1,1.1,0,0,0,91.8,9.1Zm1.208,4.494V9.514a13.268,13.268,0,0,0,7.76-2.093c.9.965,1.386,1.471,1.543,1.664v4.507a4.652,4.652,0,0,1-9.3,0Zm1.624,11.844-1.825-3.658,1.763-.683,2.255,2.784Zm.712,12.785,1.8-10.618h1.165l1.8,10.618-2.379,2.618Z" fill="#002352" transform="translate(-83.447)"/>
        </g>
    </g>
</svg>
