<svg xmlns="http://www.w3.org/2000/svg" width="39.054" height="34.098" viewBox="0 0 39.054 34.098"><defs><style>.a{fill:#fff;}</style></defs><g transform="translate(0 0)"><path class="a" d="M256.14,263.75h-5.307a2.636,2.636,0,0,0-2.633,2.633v4.07a2.636,2.636,0,0,0,2.633,2.633h5.307a2.636,2.636,0,0,0,2.633-2.633v-4.07A2.636,2.636,0,0,0,256.14,263.75Zm.718,6.7a.72.72,0,0,1-.718.718h-5.307a.72.72,0,0,1-.718-.718v-4.07a.72.72,0,0,1,.718-.718h5.307a.72.72,0,0,1,.718.718Z" transform="translate(-228.394 -245.181)"/><path class="a" d="M39.054,42.222a.889.889,0,0,0-.128-.471L33.117,31.537a.963.963,0,0,0-.83-.487H6.759a.946.946,0,0,0-.83.487L.128,41.751A.968.968,0,0,0,0,42.222a5.6,5.6,0,0,0,3.352,5.123V64.191a.96.96,0,0,0,.958.958H34.737a.96.96,0,0,0,.958-.958V47.465a.422.422,0,0,0-.008-.1A5.617,5.617,0,0,0,39.054,42.222ZM7.318,32.973H31.728l4.541,7.988H2.785Zm20.476,9.9a3.68,3.68,0,0,1-7.246,0Zm-9.281,0a3.685,3.685,0,0,1-7.254,0Zm-16.534,0H9.233a3.685,3.685,0,0,1-7.254,0ZM16.088,63.233H10.581V52.9a1.364,1.364,0,0,1,1.365-1.365h2.785A1.364,1.364,0,0,1,16.1,52.9V63.233Zm17.691,0H18V52.9a3.285,3.285,0,0,0-3.28-3.28H11.938a3.285,3.285,0,0,0-3.28,3.28V63.241H5.267V47.816c.112.008.223.008.335.008a5.6,5.6,0,0,0,4.644-2.474,5.6,5.6,0,0,0,9.289,0,5.582,5.582,0,0,0,9.273,0,5.6,5.6,0,0,0,4.644,2.474c.112,0,.215-.008.327-.008V63.233Zm-.327-17.324a3.678,3.678,0,0,1-3.623-3.032h7.254A3.7,3.7,0,0,1,33.452,45.909Z" transform="translate(0 -31.05)"/></g></svg>