<svg xmlns="http://www.w3.org/2000/svg" width="20.896" height="12.407" viewBox="0 0 20.896 12.407"><defs><style>.a{fill:#fff;}</style></defs><g transform="translate(-7.089 -6.661)"><path class="a" d="M169.248,220.959H150.311a.979.979,0,0,1,0-1.959h18.937a.979.979,0,1,1,0,1.959Zm0,0" transform="translate(-142.243 -207.114)"/><path class="a" d="M155.543,146.06a.972.972,0,0,1-.692-.287l-5.224-5.224a.98.98,0,0,1,0-1.386l5.224-5.224a.98.98,0,1,1,1.386,1.386l-4.532,4.532,4.532,4.532a.979.979,0,0,1-.693,1.672Zm0,0" transform="translate(-142.25 -126.991)"/></g></svg>