<svg xmlns="http://www.w3.org/2000/svg" width="23.522" height="33.453" viewBox="0 0 23.522 33.453"><defs><style>.a{fill:#fff;}</style></defs><g transform="translate(-76)"><g transform="translate(76)"><path class="a" d="M87.761,0A11.763,11.763,0,0,0,77.756,17.945L87.092,32.99a.98.98,0,0,0,.833.463h.008a.98.98,0,0,0,.833-.476l9.1-15.19A11.764,11.764,0,0,0,87.761,0Zm8.42,16.78L87.909,30.591,79.422,16.913a9.807,9.807,0,1,1,16.759-.133Z" transform="translate(-76)"/></g><g transform="translate(81.88 5.88)"><path class="a" d="M171.881,90a5.88,5.88,0,1,0,5.88,5.88A5.887,5.887,0,0,0,171.881,90Zm0,9.814a3.933,3.933,0,1,1,3.927-3.933A3.936,3.936,0,0,1,171.881,99.814Z" transform="translate(-166 -90)"/></g></g></svg>