<svg xmlns="http://www.w3.org/2000/svg" width="22.029" height="20.652" viewBox="0 0 22.029 20.652"><g transform="translate(0 -16.01)"><g transform="translate(0 16.01)"><path d="M12.142,16.167a.693.693,0,0,0-.566-.146L.562,18.087A.686.686,0,0,0,0,18.763V33.908a.688.688,0,0,0,.562.676l11.015,2.065a.658.658,0,0,0,.127.012.688.688,0,0,0,.688-.688V16.7A.687.687,0,0,0,12.142,16.167ZM11.015,35.143,1.377,33.336v-14l9.638-1.806Z" transform="translate(0 -16.01)"/></g><g transform="translate(11.015 18.763)"><path d="M266.326,79.99h-9.638a.688.688,0,0,0,0,1.377h8.949V93.758h-8.949a.688.688,0,0,0,0,1.377h9.638a.689.689,0,0,0,.688-.688V80.678A.689.689,0,0,0,266.326,79.99Z" transform="translate(-256 -79.99)"/></g><g transform="translate(11.015 21.516)"><path d="M259.442,143.99h-2.754a.688.688,0,1,0,0,1.377h2.754a.688.688,0,1,0,0-1.377Z" transform="translate(-256 -143.99)"/></g><g transform="translate(11.015 24.27)"><path d="M259.442,207.99h-2.754a.688.688,0,1,0,0,1.377h2.754a.688.688,0,1,0,0-1.377Z" transform="translate(-256 -207.99)"/></g><g transform="translate(11.015 27.024)"><path d="M259.442,271.99h-2.754a.688.688,0,0,0,0,1.377h2.754a.688.688,0,0,0,0-1.377Z" transform="translate(-256 -271.99)"/></g><g transform="translate(11.015 29.777)"><path d="M259.442,335.99h-2.754a.688.688,0,0,0,0,1.377h2.754a.688.688,0,0,0,0-1.377Z" transform="translate(-256 -335.99)"/></g><g transform="translate(16.522 21.516)"><path d="M386.065,143.99h-1.377a.688.688,0,0,0,0,1.377h1.377a.688.688,0,0,0,0-1.377Z" transform="translate(-384 -143.99)"/></g><g transform="translate(16.522 24.27)"><path d="M386.065,207.99h-1.377a.688.688,0,0,0,0,1.377h1.377a.688.688,0,0,0,0-1.377Z" transform="translate(-384 -207.99)"/></g><g transform="translate(16.522 27.024)"><path d="M386.065,271.99h-1.377a.688.688,0,0,0,0,1.377h1.377a.688.688,0,0,0,0-1.377Z" transform="translate(-384 -271.99)"/></g><g transform="translate(16.522 29.777)"><path d="M386.065,335.99h-1.377a.688.688,0,0,0,0,1.377h1.377a.688.688,0,0,0,0-1.377Z" transform="translate(-384 -335.99)"/></g><g transform="translate(3.442 22.893)"><path d="M86.031,181.727l-4.819-5.507a.688.688,0,0,0-1.037.906l4.819,5.507a.688.688,0,0,0,1.037-.906Z" transform="translate(-80.004 -175.984)"/></g><g transform="translate(3.442 22.205)"><path d="M85.93,160.138a.688.688,0,0,0-.967.12l-4.819,6.2a.689.689,0,0,0,1.086.847l4.819-6.2A.688.688,0,0,0,85.93,160.138Z" transform="translate(-79.999 -159.992)"/></g></g></svg>