<svg xmlns="http://www.w3.org/2000/svg" width="43.406" height="27.56" viewBox="0 0 43.406 27.56"><defs><style>.a{fill:#fff;}</style></defs><g transform="translate(0 0)"><path class="a" d="M37.54,104.377a4.955,4.955,0,1,0-5.685,0,8.586,8.586,0,0,0-2.929,1.718,11.11,11.11,0,0,0-4.019-2.19,6.278,6.278,0,1,0-6.493,0,11.2,11.2,0,0,0-3.976,2.164,8.656,8.656,0,0,0-2.894-1.683,4.955,4.955,0,1,0-5.685,0A8.7,8.7,0,0,0,0,112.6v.567a.037.037,0,0,0,.034.034h10.5a11.552,11.552,0,0,0-.094,1.451v.584a4.567,4.567,0,0,0,4.569,4.569H28.324a4.567,4.567,0,0,0,4.569-4.569v-.584a11.551,11.551,0,0,0-.094-1.451H43.371a.037.037,0,0,0,.034-.034V112.6A8.732,8.732,0,0,0,37.54,104.377Zm-6.424-4.062a3.581,3.581,0,1,1,3.65,3.581h-.137A3.576,3.576,0,0,1,31.116,100.314ZM16.739,98.528a4.9,4.9,0,1,1,5.187,4.9h-.567A4.911,4.911,0,0,1,16.739,98.528ZM5.093,100.314a3.581,3.581,0,1,1,3.65,3.581H8.606A3.582,3.582,0,0,1,5.093,100.314Zm5.685,11.508H1.391a7.338,7.338,0,0,1,7.231-6.553h.1a7.262,7.262,0,0,1,4.681,1.743A11.277,11.277,0,0,0,10.778,111.823ZM31.5,115.241a3.2,3.2,0,0,1-3.195,3.195H15a3.2,3.2,0,0,1-3.195-3.195v-.584a9.865,9.865,0,0,1,9.559-9.851c.094.009.2.009.292.009s.2,0,.292-.009a9.865,9.865,0,0,1,9.559,9.851Zm1.022-3.418a11.247,11.247,0,0,0-2.6-4.775,7.3,7.3,0,0,1,4.724-1.778h.1a7.338,7.338,0,0,1,7.231,6.553Z" transform="translate(0 -92.25)"/></g></svg>