<svg xmlns="http://www.w3.org/2000/svg" xmlns:xlink="http://www.w3.org/1999/xlink" width="43.991" height="53.428" viewBox="0 0 43.991 53.428"><defs><style>.a{fill:none;}.b{clip-path:url(#a);}.c{fill:#fff;}</style><clipPath id="a"><rect class="a" width="43.991" height="53.428"/></clipPath></defs><g transform="translate(0 0)"><g class="b" transform="translate(0 0)"><path class="c" d="M1.952,51.613H5.518c0-.6,0-1.118,0-1.636-.015-4.4-.041-8.8-.042-13.2,0-2.582,1.024-3.521,3.6-3.357,3.87.246,3.973.356,3.973,4.236V51.6H18.54V50.1q0-10.133,0-20.267c0-2.59.716-3.3,3.335-3.342.357-.006.713-.01,1.069,0,2.287.084,3,.812,3,3.108q.007,10.2.005,20.4c0,.522.05,1.045.083,1.692,1.66,0,3.212.039,4.76-.037.27-.013.609-.472.747-.8a2.877,2.877,0,0,0,.032-1.055q0-15.266,0-30.533c0-2.743.614-3.355,3.374-3.382q.668-.007,1.335.02c1.984.085,2.73.828,2.752,2.8s.006,3.911.006,5.867V51.719a31.763,31.763,0,0,1,3.545.041c.5.057.941.558,1.41.858-.479.267-.956.767-1.436.768-13.715.042-27.429.029-41.143.043-1,0-1.415-.318-1.413-1.4Q.05,27.1.036,2.165A4.886,4.886,0,0,1,.111.712C.21.406.66-.036.881,0a1.523,1.523,0,0,1,.9.756,2.427,2.427,0,0,1,.045,1.051c0,5.2,0,10.4,0,15.853.52-.354.9-.6,1.268-.863,2.83-2.083,5.673-4.148,8.471-6.273.765-.582,1.209-.541,1.859.194,1.558,1.763,3.225,3.429,4.954,5.246L34.7,4.1a7.085,7.085,0,0,1-1.61-.406c-.321-.173-.505-.6-.751-.915.3-.215.632-.641.91-.611,1.439.155,2.866.429,4.356.67-.184,1.4-.287,2.632-.538,3.837-.089.426-.54.777-.826,1.161-.276-.423-.575-.833-.817-1.274a2.812,2.812,0,0,1-.091-.827L18.137,18.164,12.3,12.046c-3.377,2.506-6.7,4.959-10,7.45a1.408,1.408,0,0,0-.456,1q-.031,15.333-.007,30.666a2.257,2.257,0,0,0,.114.456" transform="translate(0 0)"/></g></g></svg>