<svg xmlns="http://www.w3.org/2000/svg" width="33.9" height="33.9" viewBox="0 0 33.9 33.9">
    <defs>
        <style>
            .a{;stroke:#002352;stroke-width:.5px}
        </style>
    </defs>
    <g fill="#fff" transform="translate(0.25 0.25)">
        <path class="a" d="M32.748,13.618H28.573a.652.652,0,0,0-.652.652v3.294a.652.652,0,0,0,1.3,0V14.922H32.1V32.1h-2.87V22.457a.652.652,0,0,0-1.3,0V32.1h-1.3v-13.5a.652.652,0,0,0-.652-.652H21.788a.652.652,0,0,0-.652.652V32.1h-1.3V23.158a.652.652,0,0,0-.652-.652H15a.652.652,0,0,0-.652.652V32.1h-1.3V26.9a.652.652,0,0,0-.652-.652H8.22a.652.652,0,0,0-.652.652V32.1H1.957a.653.653,0,0,1-.652-.652V1.957A.653.653,0,0,1,1.957,1.3H18.786V5.61a1.959,1.959,0,0,0,1.957,1.957h4.305v8.024a.652.652,0,1,0,1.3,0V6.915a.653.653,0,0,0-.191-.461L19.9.191A.653.653,0,0,0,19.438,0H1.957A1.959,1.959,0,0,0,0,1.957V31.443A1.959,1.959,0,0,0,1.957,33.4H32.748a.652.652,0,0,0,.652-.652V14.27A.652.652,0,0,0,32.748,13.618ZM20.09,2.227l4.035,4.035H20.743a.653.653,0,0,1-.652-.652ZM11.742,32.1H8.872V27.553h2.87Zm6.784,0h-2.87V23.81h2.87Zm6.784,0h-2.87V19.244h2.87Z"/>
        <g fill="#fff" transform="translate(27.92 19.237)">
            <path class="a" d="M429.114,295.081a.652.652,0,1,0,.191.461A.655.655,0,0,0,429.114,295.081Z" fill="#fff" transform="translate(-428 -294.89)"/>
        </g>
        <g fill="#fff" transform="translate(3.497 3.57)">
            <path class="a" d="M59.6,54.729a.652.652,0,0,0-.652.652v1.174a6,6,0,1,0,6.617,6.617H66.74a.652.652,0,0,0,.652-.652A7.8,7.8,0,0,0,59.6,54.729Zm0,12.486a4.7,4.7,0,0,1-.652-9.345v4.65a.652.652,0,0,0,.652.652h4.65A4.7,4.7,0,0,1,59.6,67.215Zm.652-5.348h0v-5.8a6.5,6.5,0,0,1,5.8,5.8Z" fill="#fff" transform="translate(-53.602 -54.729)"/>
        </g>
        <g fill="#fff" transform="translate(3.523 19.195)">
            <path class="a" d="M67.112,294.25H54.652a.652.652,0,0,0,0,1.3h12.46a.652.652,0,0,0,0-1.3Z" fill="#fff" transform="translate(-54 -294.25)"/>
        </g>
        <g fill="#fff" transform="translate(3.523 22.343)">
            <path class="a" d="M58.827,342.5H54.652a.652.652,0,0,0,0,1.3h4.175a.652.652,0,0,0,0-1.3Z" fill="#fff" transform="translate(-54 -342.5)"/>
        </g>
        <g fill="#fff" transform="translate(10.965 22.343)">
            <path class="a" d="M169.194,342.691a.652.652,0,1,0,.191.461A.657.657,0,0,0,169.194,342.691Z" fill="#fff" transform="translate(-168.08 -342.5)"/>
        </g>
    </g>
</svg>
