<svg xmlns="http://www.w3.org/2000/svg" width="24.626" height="39.942" viewBox="0 0 24.626 39.942">
    <path d="M35.3,14.641a4.326,4.326,0,0,0,0-8.652H29.276l-1.131-2.8a2,2,0,0,0-3.667.013L21.2,11.314h-.879a.666.666,0,0,0-.666.666v4.659H18.328A3.328,3.328,0,0,0,15,19.966V38.6a3.328,3.328,0,0,0,3.328,3.328H34.3A3.328,3.328,0,0,0,37.629,38.6V19.966A3.328,3.328,0,0,0,34.3,16.638H32.97v-2ZM25.7,3.72a.659.659,0,0,1,.612-.4.64.64,0,0,1,.6.379L28.378,7.32H24.251Zm-1.99,4.932h5.2l1.078,2.662H22.641ZM20.99,12.645H31.639v3.993H20.99ZM36.3,38.6a2,2,0,0,1-2,2H18.328a2,2,0,0,1-2-2v-2H36.3Zm0-3.328H16.331V23.294H36.3Zm-2-17.3a2,2,0,0,1,2,2v2H16.331v-2a2,2,0,0,1,2-2Zm-2-6.656h-.879L29.809,7.32H35.3a3,3,0,0,1,0,5.99H32.97V11.979A.666.666,0,0,0,32.3,11.314Z" fill="#fff" transform="translate(-15 -1.987)"/>
    <path d="M29.324,45.318c2.936,0,5.324-2.091,5.324-4.659S32.26,36,29.324,36,24,38.091,24,40.659,26.389,45.318,29.324,45.318Zm0-7.987c2.2,0,3.993,1.493,3.993,3.328s-1.791,3.328-3.993,3.328-3.993-1.493-3.993-3.328S27.122,37.331,29.324,37.331Z" fill="#fff" transform="translate(-18.01 -13.363)"/>
</svg>
