<svg xmlns="http://www.w3.org/2000/svg" width="36.499" height="34.75" viewBox="0 0 36.499 34.75"><defs><style>.a{fill:#fff;}</style></defs><g transform="translate(0 -0.39)"><path class="a" d="M348.278,41.793l.048,0a.592.592,0,0,0,.082-.006,1.322,1.322,0,0,1,1.295,1.32.591.591,0,1,0,1.183,0,2.507,2.507,0,0,0-1.968-2.445V40.1a.591.591,0,1,0-1.183,0v.6a2.5,2.5,0,0,0,.647,4.922,1.321,1.321,0,1,1-1.321,1.321.591.591,0,0,0-1.183,0,2.508,2.508,0,0,0,1.857,2.418V50a.591.591,0,1,0,1.183,0v-.621a2.5,2.5,0,0,0-.536-4.949,1.321,1.321,0,0,1-.1-2.637Zm0,0" transform="translate(-320.311 -36.222)"/><path class="a" d="M28.1.39A8.484,8.484,0,0,0,20.2,5.943H5.521a.618.618,0,0,0-.591.618L4.79,27.3H.607A.582.582,0,0,0,0,27.868V30.5a4.645,4.645,0,0,0,4.435,4.626v.013H22.692v-.017c.148.005.209.017.3.017h.013A4.645,4.645,0,0,0,27.645,30.5V17.185c.148.008.3.012.457.012A8.4,8.4,0,0,0,28.1.39ZM4.66,33.957h0a3.478,3.478,0,0,1-3.474-3.463V28.487H18.331v2A4.639,4.639,0,0,0,19.7,33.773c.062.062.139.11.2.184Zm21.8-3.463a3.462,3.462,0,0,1-3.455,3.463H23a3.488,3.488,0,0,1-3.482-3.47V27.868a.546.546,0,0,0-.564-.564H5.973L6.109,7.125H19.87a8.885,8.885,0,0,0-.162,1.642,8.339,8.339,0,0,0,.714,3.384H14.836a.591.591,0,0,0,0,1.183h6.227a8.345,8.345,0,0,0,5.4,3.7ZM28.1,16.015A7.213,7.213,0,1,1,35.317,8.8,7.213,7.213,0,0,1,28.1,16.015Zm0,0"/><path class="a" d="M125.654,212.746a1.834,1.834,0,1,0,1.893,1.833A1.865,1.865,0,0,0,125.654,212.746Zm0,2.483a.653.653,0,1,1,.71-.65A.683.683,0,0,1,125.654,215.229Zm0,0" transform="translate(-114.614 -196.659)"/><path class="a" d="M192.719,230.1a.591.591,0,0,0,.591.591h7.884a.591.591,0,0,0,0-1.183H193.31A.591.591,0,0,0,192.719,230.1Zm0,0" transform="translate(-178.474 -212.178)"/><path class="a" d="M125.654,143.2a1.834,1.834,0,1,0,1.893,1.833A1.866,1.866,0,0,0,125.654,143.2Zm0,2.483a.653.653,0,1,1,.71-.65.683.683,0,0,1-.71.65Zm0,0" transform="translate(-114.614 -132.256)"/><path class="a" d="M125.654,282.281a1.834,1.834,0,1,0,1.893,1.833A1.865,1.865,0,0,0,125.654,282.281Zm0,2.483a.653.653,0,1,1,.71-.65A.682.682,0,0,1,125.654,284.764Zm0,0" transform="translate(-114.614 -261.054)"/><path class="a" d="M201.194,299.5H193.31a.591.591,0,1,0,0,1.183h7.884a.591.591,0,1,0,0-1.183Zm0,0" transform="translate(-178.474 -277.004)"/></g></svg>