<svg xmlns="http://www.w3.org/2000/svg" width="23.42" height="23.42" viewBox="0 0 23.42 23.42"><defs><style>.a{fill:#59cbe8;}</style></defs><path class="a" d="M11.71,0A11.71,11.71,0,1,0,23.42,11.71,11.724,11.724,0,0,0,11.71,0Zm0,21.291a9.581,9.581,0,1,1,9.581-9.581A9.592,9.592,0,0,1,11.71,21.291Z"/><path class="a" d="M146.421,70a1.419,1.419,0,1,0,1.419,1.42A1.421,1.421,0,0,0,146.421,70Z" transform="translate(-134.711 -65.032)"/><path class="a" d="M151.065,140A1.065,1.065,0,0,0,150,141.065v6.387a1.065,1.065,0,1,0,2.129,0v-6.387A1.065,1.065,0,0,0,151.065,140Z" transform="translate(-139.354 -130.064)"/></svg>