<svg xmlns="http://www.w3.org/2000/svg" width="13.931" height="13.059" viewBox="0 0 13.931 13.059"><defs><style>.a{fill:#595959;}</style></defs><g transform="translate(0 0)"><path class="a" d="M7.678,16.109a.438.438,0,0,0-.358-.092L.355,17.323A.434.434,0,0,0,0,17.751v9.577a.435.435,0,0,0,.355.427l6.965,1.306a.416.416,0,0,0,.08.008.435.435,0,0,0,.435-.435V16.445A.434.434,0,0,0,7.678,16.109Zm-.713,12L.871,26.967V18.112L6.965,16.97Z" transform="translate(0 -16.01)"/></g><g transform="translate(6.965 1.741)"><path class="a" d="M262.53,79.99h-6.095a.435.435,0,1,0,0,.871h5.659V88.7h-5.659a.435.435,0,1,0,0,.871h6.095a.435.435,0,0,0,.435-.435V80.425A.435.435,0,0,0,262.53,79.99Z" transform="translate(-256 -79.99)"/></g><g transform="translate(6.965 3.482)"><path class="a" d="M258.177,143.99h-1.741a.435.435,0,1,0,0,.871h1.741a.435.435,0,1,0,0-.871Z" transform="translate(-256 -143.99)"/></g><g transform="translate(6.965 5.223)"><path class="a" d="M258.177,207.99h-1.741a.435.435,0,1,0,0,.871h1.741a.435.435,0,1,0,0-.871Z" transform="translate(-256 -207.99)"/></g><g transform="translate(6.965 6.965)"><path class="a" d="M258.177,271.99h-1.741a.435.435,0,1,0,0,.871h1.741a.435.435,0,1,0,0-.871Z" transform="translate(-256 -271.99)"/></g><g transform="translate(6.965 8.706)"><path class="a" d="M258.177,335.99h-1.741a.435.435,0,1,0,0,.871h1.741a.435.435,0,1,0,0-.871Z" transform="translate(-256 -335.99)"/></g><g transform="translate(10.448 3.482)"><path class="a" d="M385.306,143.99h-.871a.435.435,0,0,0,0,.871h.871a.435.435,0,0,0,0-.871Z" transform="translate(-384 -143.99)"/></g><g transform="translate(10.448 5.223)"><path class="a" d="M385.306,207.99h-.871a.435.435,0,0,0,0,.871h.871a.435.435,0,0,0,0-.871Z" transform="translate(-384 -207.99)"/></g><g transform="translate(10.448 6.965)"><path class="a" d="M385.306,271.99h-.871a.435.435,0,0,0,0,.871h.871a.435.435,0,0,0,0-.871Z" transform="translate(-384 -271.99)"/></g><g transform="translate(10.448 8.706)"><path class="a" d="M385.306,335.99h-.871a.435.435,0,0,0,0,.871h.871a.435.435,0,0,0,0-.871Z" transform="translate(-384 -335.99)"/></g><g transform="translate(2.177 4.353)"><path class="a" d="M83.815,179.615l-3.047-3.483a.435.435,0,0,0-.656.573l3.047,3.483a.435.435,0,0,0,.656-.573Z" transform="translate(-80.004 -175.984)"/></g><g transform="translate(2.177 3.917)"><path class="a" d="M83.749,160.084a.435.435,0,0,0-.611.076l-3.047,3.918a.435.435,0,0,0,.687.535l3.047-3.918A.435.435,0,0,0,83.749,160.084Z" transform="translate(-79.999 -159.992)"/></g></svg>