<?xml version="1.0" encoding="UTF-8" standalone="no"?>
<!-- Generator: Adobe Illustrator 23.0.1, SVG Export Plug-In . SVG Version: 6.00 Build 0)  -->

<svg
   xmlns:dc="http://purl.org/dc/elements/1.1/"
   xmlns:cc="http://creativecommons.org/ns#"
   xmlns:rdf="http://www.w3.org/1999/02/22-rdf-syntax-ns#"
   xmlns:svg="http://www.w3.org/2000/svg"
   xmlns="http://www.w3.org/2000/svg"
   xmlns:sodipodi="http://sodipodi.sourceforge.net/DTD/sodipodi-0.dtd"
   xmlns:inkscape="http://www.inkscape.org/namespaces/inkscape"
   version="1.1"
   id="Capa_1"
   x="0px"
   y="0px"
   viewBox="0 0 18 18.6"
   style="enable-background:new 0 0 18 18.6;"
   xml:space="preserve"
   sodipodi:docname="left-arrowC.svg"
   inkscape:version="0.92.4 (5da689c313, 2019-01-14)"><metadata
   id="metadata11"><rdf:RDF><cc:Work
       rdf:about=""><dc:format>image/svg+xml</dc:format><dc:type
         rdf:resource="http://purl.org/dc/dcmitype/StillImage" /></cc:Work></rdf:RDF></metadata><defs
   id="defs9" /><sodipodi:namedview
   pagecolor="#ffffff"
   bordercolor="#666666"
   borderopacity="1"
   objecttolerance="10"
   gridtolerance="10"
   guidetolerance="10"
   inkscape:pageopacity="0"
   inkscape:pageshadow="2"
   inkscape:window-width="1920"
   inkscape:window-height="1013"
   id="namedview7"
   showgrid="false"
   inkscape:snap-page="true"
   inkscape:zoom="11.313709"
   inkscape:cx="-13.420755"
   inkscape:cy="20.974171"
   inkscape:window-x="-9"
   inkscape:window-y="-9"
   inkscape:window-maximized="1"
   inkscape:current-layer="Capa_1" />
<style
   type="text/css"
   id="style2">
	.st0{fill:#F6F6F7;}
	.st1{fill-rule:evenodd;clip-rule:evenodd;fill:#CCCCCC;}
	.st2{opacity:0.63;fill:#5E7D9F;}
	.st3{fill:#f4a300;}
	.st4{fill:none;stroke:#B9B9B9;stroke-width:0.5;stroke-linecap:round;stroke-linejoin:round;stroke-miterlimit:10;}
	.st5{fill:url(#SVGID_1_);}
	.st6{fill:#4E5151;}
	.st7{fill:url(#SVGID_2_);}
	.st8{fill:url(#SVGID_3_);}
	.st9{fill:#333333;}
	.st10{fill:url(#SVGID_4_);}
	.st11{fill:url(#SVGID_5_);}
	.st12{fill:url(#SVGID_6_);}
	.st13{fill:url(#SVGID_7_);}
	.st14{fill:url(#SVGID_8_);}
	.st15{fill:url(#SVGID_9_);}
	.st16{fill:#CADEEE;}
	.st17{fill:url(#SVGID_10_);}
	.st18{fill:#005C6D;}
	.st19{fill:url(#SVGID_11_);}
	.st20{fill:url(#SVGID_12_);}
	.st21{fill:url(#SVGID_13_);}
	.st22{fill:url(#SVGID_14_);}
	.st23{opacity:0.68;}
	.st24{fill:#141E29;}
	.st25{fill:#2F3F50;}
	.st26{fill:#9EB1C5;}
	.st27{fill:#293D52;}
	.st28{fill:#5E7D9F;}
	.st29{fill:#475E77;}
	.st30{fill:#1E2D3E;}
	.st31{fill:url(#SVGID_15_);}
	.st32{fill:url(#SVGID_16_);}
	.st33{fill:url(#SVGID_17_);}
	.st34{fill:url(#SVGID_18_);}
	.st35{fill:url(#SVGID_19_);}
	.st36{fill:url(#SVGID_20_);}
	.st37{fill:url(#SVGID_21_);}
	.st38{fill:url(#SVGID_22_);}
	.st39{fill:url(#SVGID_23_);}
	.st40{fill:url(#SVGID_24_);}
	.st41{fill:url(#SVGID_25_);}
	.st42{fill:url(#SVGID_26_);}
	.st43{fill:url(#SVGID_27_);}
	.st44{fill:url(#SVGID_28_);}
	.st45{fill:url(#SVGID_29_);}
	.st46{fill:#CCCCCC;}
	.st47{fill-rule:evenodd;clip-rule:evenodd;fill:#FFFFFF;}
	.st48{fill:none;stroke:#5E7D9F;stroke-width:0.5;stroke-miterlimit:10;}
	.st49{fill:#5D5D5D;}
	.st50{fill-rule:evenodd;clip-rule:evenodd;fill:#E03834;}
	.st51{fill-rule:evenodd;clip-rule:evenodd;fill:#F6F6F7;}
	.st52{fill:url(#SVGID_30_);}
	.st53{fill:url(#SVGID_31_);}
	.st54{fill:#5D7C9E;}
	.st55{clip-path:url(#SVGID_33_);fill:#F6F6F7;}
	.st56{fill:url(#SVGID_34_);}
	.st57{fill:#EEEEEE;}
	.st58{clip-path:url(#SVGID_36_);fill:#F6F6F7;}
	.st59{fill:#E12527;}
	.st60{fill:#43AB6C;}
	.st61{fill-rule:evenodd;clip-rule:evenodd;fill:#5D7C9E;}
	.st62{fill:url(#SVGID_37_);}
	.st63{fill:url(#SVGID_38_);}
	.st64{clip-path:url(#SVGID_40_);fill:#F6F6F7;}
	.st65{fill:none;stroke:#AFAEB4;stroke-width:0.25;stroke-miterlimit:10;}
	.st66{fill-rule:evenodd;clip-rule:evenodd;fill:#1E120D;}
	.st67{fill:#FFFFFF;stroke:#1C1C1B;stroke-width:0.25;stroke-miterlimit:10;}
	.st68{fill:#1C1C1B;stroke:#1C1C1B;stroke-width:0.25;stroke-miterlimit:10;}
	.st69{fill:#42464E;}
	.st70{fill:url(#SVGID_41_);}
	.st71{fill:url(#SVGID_42_);}
	.st72{clip-path:url(#SVGID_44_);fill:#F6F6F7;}
	.st73{opacity:0.49;}
	.st74{fill:#E7C8A5;}
	.st75{fill:#AFAEB4;}
	.st76{fill:#A0B9C4;}
	.st77{fill:#B2ACB5;}
	.st78{fill:#B2ACB5;stroke:#B2ACB5;stroke-miterlimit:10;}
	.st79{fill:#5C7CA3;}
	.st80{fill:#5C7CA3;stroke:#5C7CA3;stroke-miterlimit:10;}
	.st81{fill:none;stroke:#1E120D;stroke-width:0.5;stroke-miterlimit:10;}
	.st82{opacity:0.5;fill:#5B5B5F;stroke:#5B5B5F;stroke-miterlimit:10;}
	.st83{fill:none;stroke:#B2ACB5;stroke-miterlimit:10;}
	.st84{fill:#2094DD;}
	.st85{fill:none;stroke:#2094DD;stroke-miterlimit:10;}
	.st86{fill:#5DFDCB;}
	.st87{fill:#EBEBEB;}
	.st88{fill:#606060;}
	.st89{fill:#F2F2F2;}
	.st90{fill-rule:evenodd;clip-rule:evenodd;fill:#5E7D9F;}
	.st91{fill:url(#SVGID_45_);}
	.st92{fill:#0C131E;}
	.st93{fill:#FFFFFF;stroke:#B3B3B3;stroke-width:0.75;stroke-miterlimit:10;}
	.st94{fill:#999999;}
	.st95{fill:#BF5E6E;}
	.st96{fill:#FFFFFF;stroke:#FFFFFF;stroke-width:0.5;stroke-miterlimit:10;}
	.st97{fill:#606060;stroke:#606060;stroke-miterlimit:10;}
	.st98{fill:#B3B3B3;}
	.st99{fill:url(#SVGID_46_);}
	.st100{fill:#F6F6F7;stroke:#F6F6F7;stroke-miterlimit:10;}
	.st101{fill:url(#SVGID_47_);}
	.st102{fill:url(#SVGID_48_);}
	.st103{opacity:0.67;}
	.st104{fill:url(#SVGID_49_);}
	.st105{fill:none;stroke:#B3B3B3;stroke-miterlimit:10;}
	.st106{fill-rule:evenodd;clip-rule:evenodd;fill:#808080;}
	.st107{fill:#808080;}
	.st108{fill:url(#SVGID_50_);}
	.st109{fill-rule:evenodd;clip-rule:evenodd;fill:#EEEEEE;}
	.st110{fill-rule:evenodd;clip-rule:evenodd;fill:#F2F2F2;}
	.st111{fill:#9B999F;}
	.st112{fill:#FFFFFF;stroke:#B3B3B3;stroke-miterlimit:10;}
</style>
<path
   class="st90"
   d="M7.5,8.8c1.4-1.4,2.7-2.7,4.1-4.1c0.1-0.1,0.3-0.3,0.4-0.5C12.1,4,12,3.7,11.8,3.5c-0.2-0.2-0.5-0.3-0.8-0.1  c-0.1,0.1-0.2,0.2-0.4,0.3c-1.5,1.5-3,3-4.5,4.5C5.6,8.7,5.6,9,6.1,9.6c1.5,1.5,3,3,4.5,4.5c0.4,0.4,0.9,0.5,1.2,0.1  c0.3-0.3,0.3-0.8-0.1-1.2C10.3,11.6,8.9,10.3,7.5,8.8z"
   id="path4" />
<path
   style="stroke-width:0.07881356;fill:#f4a300;fill-opacity:1"
   d="M 10.962458,14.332454 C 10.743705,14.213613 6.3094532,9.804105 6.0285698,9.4260989 5.8763138,9.2211962 5.7999797,9.0241341 5.7996002,8.8349972 5.7990628,8.5671456 5.9435861,8.4071913 8.3827159,5.9760792 9.977379,4.3866577 11.045363,3.3810689 11.172678,3.3491148 11.639622,3.2319192 12.1504,3.7871595 11.945924,4.1896715 11.89438,4.2911362 10.855896,5.3744331 9.6381822,6.5969981 L 7.4241565,8.8198435 9.5966321,10.971151 c 1.1948619,1.183219 2.2126419,2.228774 2.2617349,2.323456 0.160818,0.310158 0.107524,0.649254 -0.141118,0.897896 -0.239996,0.239996 -0.486505,0.285703 -0.754791,0.139951 z"
   id="path13"
   inkscape:connector-curvature="0" /><path
   style="fill:#f4a300;fill-opacity:1;stroke-width:0.00390625"
   d="M 10.881654,12.257458 C 10.441919,11.809573 9.8302774,11.199413 8.6095385,9.9908469 L 7.4265992,8.819704 7.6877091,8.557624 C 7.8313196,8.4134801 8.1789268,8.0648313 8.4601695,7.7828489 L 8.9715199,7.2701535 h 0.027663 0.027663 L 8.262139,8.0348673 7.4974327,8.7995811 l 0.043735,0.04681 c 0.4067258,0.4353231 0.751929,0.7900724 1.3799868,1.4181479 0.5443784,0.544395 0.6149404,0.613975 1.4298585,1.409958 0.476823,0.465743 0.712813,0.696763 0.814491,0.797337 l 0.0449,0.04441 h -0.03734 -0.03734 z"
   id="path4523"
   inkscape:connector-curvature="0" /><path
   style="fill:#f4a300;fill-opacity:1;stroke-width:0.00390625"
   d="M 7.550048,11.046521 C 6.1852071,9.6809653 6.0777478,9.5725027 6.0339292,9.5162473 5.8535002,9.2846076 5.7620538,9.1133607 5.735411,8.9572279 5.7249314,8.8958151 5.7266409,8.7998194 5.7391599,8.746716 5.7768185,8.5869743 5.8687699,8.4441766 6.0683354,8.2355168 6.1127869,8.1890397 6.347608,7.9527313 6.5901602,7.7103871 l 0.441004,-0.4406258 0.027044,0.00117 0.027045,0.00117 L 6.904019,7.4557004 C 6.1366403,8.233069 5.8832937,8.5237628 5.8202724,8.6992078 c -0.040423,0.1125343 -0.024335,0.2781078 0.043142,0.4439926 0.047126,0.1158543 0.1284418,0.2460153 0.2172779,0.347794 0.2653692,0.3040312 1.3535255,1.4116666 2.6777469,2.7256806 l 0.3018993,0.299572 h -0.020667 -0.020667 z"
   id="path4525"
   inkscape:connector-curvature="0" /><path
   style="fill:#f4a300;fill-opacity:1;stroke-width:0.00390625"
   d=""
   id="path4527"
   inkscape:connector-curvature="0" /><path
   style="fill:#f4a300;fill-opacity:1;stroke-width:0.00390625"
   d="M 9.4530525,6.784717 C 9.8957797,6.3406359 10.418761,5.8110975 10.70869,5.5133361 l 0.115038,-0.1181457 0.03906,-1.84e-5 0.03906,-1.85e-5 -0.9374943,0.9375 -0.9374938,0.9375 h -0.028881 -0.028881 z"
   id="path4531"
   inkscape:connector-curvature="0" /><path
   style="fill:#f4a300;fill-opacity:1;stroke-width:0.00390625"
   d="m 7.0366184,7.2672223 c 0,-0.00161 0.8020019,-0.8047804 1.7822265,-1.7848182 1.6330421,-1.6327309 1.7843251,-1.7829284 1.8072921,-1.794329 0.04588,-0.022775 0.126708,-0.072978 0.174413,-0.1083324 0.05484,-0.040646 0.09478,-0.07508 0.159896,-0.1378735 0.04933,-0.047573 0.07209,-0.063397 0.131574,-0.091502 0.0785,-0.037088 0.140912,-0.052396 0.225848,-0.055395 0.181411,-0.0064 0.342619,0.065593 0.492234,0.2198378 0.115402,0.1189738 0.193884,0.2681585 0.219303,0.4168659 0.0105,0.061448 0.0087,0.1432781 -0.0042,0.1939462 -0.0229,0.089802 -0.11327,0.2304113 -0.24705,0.3843994 -0.02631,0.03028 -0.234254,0.24189 -0.462108,0.4702456 l -0.414279,0.4151919 -0.03781,-0.00113 -0.03781,-0.00113 0.155033,-0.1604589 c 0.645748,-0.6683494 0.938096,-0.9856748 0.971393,-1.0543848 0.01618,-0.033394 0.03126,-0.084413 0.03687,-0.1247435 0.04084,-0.2936309 -0.226936,-0.6317515 -0.560265,-0.7074452 -0.09289,-0.021094 -0.21652,-0.016767 -0.273437,0.00957 -0.107495,0.04974 -0.57791,0.4745111 -1.3456472,1.2150797 -0.4858043,0.46863 -0.9400344,0.9169849 -1.9046186,1.8800013 L 7.0848064,7.2701535 h -0.024094 c -0.013252,0 -0.024094,-0.00132 -0.024094,-0.00293 z"
   id="path4533"
   inkscape:connector-curvature="0" /><path
   style="fill:#f4a300;fill-opacity:1;stroke-width:0.00390625"
   d="m 11.267087,14.451441 c -0.08063,-0.0095 -0.131439,-0.02054 -0.193359,-0.04183 -0.08473,-0.02914 -0.174169,-0.07488 -0.257813,-0.131843 -0.10773,-0.07337 -0.101586,-0.06745 -0.9698186,-0.93496 L 9.0208089,12.5182 l 0.019905,-0.0012 0.019905,-0.0012 0.1102447,0.108613 c 0.9551934,0.941049 1.5946664,1.554439 1.7545474,1.68298 0.05002,0.04022 0.151044,0.08303 0.23517,0.09966 0.05869,0.0116 0.140181,0.0117 0.195133,2.42e-4 0.123559,-0.02577 0.232087,-0.08828 0.346359,-0.199501 0.08265,-0.08044 0.130928,-0.145779 0.174749,-0.236484 0.04916,-0.101755 0.06912,-0.181785 0.07256,-0.291015 0.0016,-0.05092 5.59e-4,-0.08043 -0.0041,-0.115683 -0.01546,-0.116844 -0.06196,-0.244416 -0.111771,-0.306608 -0.06148,-0.07677 -0.28845,-0.319122 -0.603227,-0.644115 l -0.09269,-0.0957 0.03577,-0.0011 0.03578,-0.0011 0.188155,0.185261 c 0.340823,0.33558 0.386611,0.384578 0.455012,0.486898 0.04295,0.06424 0.0932,0.166027 0.115274,0.23346 0.05677,0.173438 0.05881,0.336854 0.0062,0.494869 -0.02751,0.08264 -0.07815,0.172523 -0.13215,0.234579 -0.01309,0.01504 -0.04029,0.04668 -0.06045,0.07031 -0.04719,0.05532 -0.07764,0.08467 -0.122856,0.118426 -0.09443,0.0705 -0.2041,0.108347 -0.32385,0.111772 -0.02954,8.45e-4 -0.05987,8.08e-4 -0.06739,-8.2e-5 z"
   id="path4535"
   inkscape:connector-curvature="0" /></svg>