<?xml version="1.0" encoding="UTF-8" standalone="no"?>
<!-- Generator: Adobe Illustrator 23.0.1, SVG Export Plug-In . SVG Version: 6.00 Build 0)  -->

<svg
   xmlns:dc="http://purl.org/dc/elements/1.1/"
   xmlns:cc="http://creativecommons.org/ns#"
   xmlns:rdf="http://www.w3.org/1999/02/22-rdf-syntax-ns#"
   xmlns:svg="http://www.w3.org/2000/svg"
   xmlns="http://www.w3.org/2000/svg"
   xmlns:sodipodi="http://sodipodi.sourceforge.net/DTD/sodipodi-0.dtd"
   xmlns:inkscape="http://www.inkscape.org/namespaces/inkscape"
   version="1.1"
   id="Capa_1"
   x="0px"
   y="0px"
   viewBox="0 0 18 18.6"
   style="enable-background:new 0 0 18 18.6;"
   xml:space="preserve"
   sodipodi:docname="right-arrowC.svg"
   inkscape:version="0.92.4 (5da689c313, 2019-01-14)"><metadata
   id="metadata11"><rdf:RDF><cc:Work
       rdf:about=""><dc:format>image/svg+xml</dc:format><dc:type
         rdf:resource="http://purl.org/dc/dcmitype/StillImage" /></cc:Work></rdf:RDF></metadata><defs
   id="defs9" /><sodipodi:namedview
   pagecolor="#ffffff"
   bordercolor="#666666"
   borderopacity="1"
   objecttolerance="10"
   gridtolerance="10"
   guidetolerance="10"
   inkscape:pageopacity="0"
   inkscape:pageshadow="2"
   inkscape:window-width="1920"
   inkscape:window-height="1013"
   id="namedview7"
   showgrid="false"
   inkscape:zoom="143.55028"
   inkscape:cx="6.7569272"
   inkscape:cy="14.300832"
   inkscape:window-x="-9"
   inkscape:window-y="-9"
   inkscape:window-maximized="1"
   inkscape:current-layer="Capa_1" />
<style
   type="text/css"
   id="style2">
	.st0{fill:#F6F6F7;}
	.st1{fill-rule:evenodd;clip-rule:evenodd;fill:#CCCCCC;}
	.st2{opacity:0.63;fill:#5E7D9F;}
	.st3{fill:#f4a300;}
	.st4{fill:none;stroke:#B9B9B9;stroke-width:0.5;stroke-linecap:round;stroke-linejoin:round;stroke-miterlimit:10;}
	.st5{fill:url(#SVGID_1_);}
	.st6{fill:#4E5151;}
	.st7{fill:url(#SVGID_2_);}
	.st8{fill:url(#SVGID_3_);}
	.st9{fill:#333333;}
	.st10{fill:url(#SVGID_4_);}
	.st11{fill:url(#SVGID_5_);}
	.st12{fill:url(#SVGID_6_);}
	.st13{fill:url(#SVGID_7_);}
	.st14{fill:url(#SVGID_8_);}
	.st15{fill:url(#SVGID_9_);}
	.st16{fill:#CADEEE;}
	.st17{fill:url(#SVGID_10_);}
	.st18{fill:#005C6D;}
	.st19{fill:url(#SVGID_11_);}
	.st20{fill:url(#SVGID_12_);}
	.st21{fill:url(#SVGID_13_);}
	.st22{fill:url(#SVGID_14_);}
	.st23{opacity:0.68;}
	.st24{fill:#141E29;}
	.st25{fill:#2F3F50;}
	.st26{fill:#9EB1C5;}
	.st27{fill:#293D52;}
	.st28{fill:#5E7D9F;}
	.st29{fill:#475E77;}
	.st30{fill:#1E2D3E;}
	.st31{fill:url(#SVGID_15_);}
	.st32{fill:url(#SVGID_16_);}
	.st33{fill:url(#SVGID_17_);}
	.st34{fill:url(#SVGID_18_);}
	.st35{fill:url(#SVGID_19_);}
	.st36{fill:url(#SVGID_20_);}
	.st37{fill:url(#SVGID_21_);}
	.st38{fill:url(#SVGID_22_);}
	.st39{fill:url(#SVGID_23_);}
	.st40{fill:url(#SVGID_24_);}
	.st41{fill:url(#SVGID_25_);}
	.st42{fill:url(#SVGID_26_);}
	.st43{fill:url(#SVGID_27_);}
	.st44{fill:url(#SVGID_28_);}
	.st45{fill:url(#SVGID_29_);}
	.st46{fill:#CCCCCC;}
	.st47{fill-rule:evenodd;clip-rule:evenodd;fill:#FFFFFF;}
	.st48{fill:none;stroke:#5E7D9F;stroke-width:0.5;stroke-miterlimit:10;}
	.st49{fill:#5D5D5D;}
	.st50{fill-rule:evenodd;clip-rule:evenodd;fill:#E03834;}
	.st51{fill-rule:evenodd;clip-rule:evenodd;fill:#F6F6F7;}
	.st52{fill:url(#SVGID_30_);}
	.st53{fill:url(#SVGID_31_);}
	.st54{fill:#5D7C9E;}
	.st55{clip-path:url(#SVGID_33_);fill:#F6F6F7;}
	.st56{fill:url(#SVGID_34_);}
	.st57{fill:#EEEEEE;}
	.st58{clip-path:url(#SVGID_36_);fill:#F6F6F7;}
	.st59{fill:#E12527;}
	.st60{fill:#43AB6C;}
	.st61{fill-rule:evenodd;clip-rule:evenodd;fill:#5D7C9E;}
	.st62{fill:url(#SVGID_37_);}
	.st63{fill:url(#SVGID_38_);}
	.st64{clip-path:url(#SVGID_40_);fill:#F6F6F7;}
	.st65{fill:none;stroke:#AFAEB4;stroke-width:0.25;stroke-miterlimit:10;}
	.st66{fill-rule:evenodd;clip-rule:evenodd;fill:#1E120D;}
	.st67{fill:#FFFFFF;stroke:#1C1C1B;stroke-width:0.25;stroke-miterlimit:10;}
	.st68{fill:#1C1C1B;stroke:#1C1C1B;stroke-width:0.25;stroke-miterlimit:10;}
	.st69{fill:#42464E;}
	.st70{fill:url(#SVGID_41_);}
	.st71{fill:url(#SVGID_42_);}
	.st72{clip-path:url(#SVGID_44_);fill:#F6F6F7;}
	.st73{opacity:0.49;}
	.st74{fill:#E7C8A5;}
	.st75{fill:#AFAEB4;}
	.st76{fill:#A0B9C4;}
	.st77{fill:#B2ACB5;}
	.st78{fill:#B2ACB5;stroke:#B2ACB5;stroke-miterlimit:10;}
	.st79{fill:#5C7CA3;}
	.st80{fill:#5C7CA3;stroke:#5C7CA3;stroke-miterlimit:10;}
	.st81{fill:none;stroke:#1E120D;stroke-width:0.5;stroke-miterlimit:10;}
	.st82{opacity:0.5;fill:#5B5B5F;stroke:#5B5B5F;stroke-miterlimit:10;}
	.st83{fill:none;stroke:#B2ACB5;stroke-miterlimit:10;}
	.st84{fill:#2094DD;}
	.st85{fill:none;stroke:#2094DD;stroke-miterlimit:10;}
	.st86{fill:#5DFDCB;}
	.st87{fill:#EBEBEB;}
	.st88{fill:#606060;}
	.st89{fill:#F2F2F2;}
	.st90{fill-rule:evenodd;clip-rule:evenodd;fill:#5E7D9F;}
	.st91{fill:url(#SVGID_45_);}
	.st92{fill:#0C131E;}
	.st93{fill:#FFFFFF;stroke:#B3B3B3;stroke-width:0.75;stroke-miterlimit:10;}
	.st94{fill:#999999;}
	.st95{fill:#BF5E6E;}
	.st96{fill:#FFFFFF;stroke:#FFFFFF;stroke-width:0.5;stroke-miterlimit:10;}
	.st97{fill:#606060;stroke:#606060;stroke-miterlimit:10;}
	.st98{fill:#B3B3B3;}
	.st99{fill:url(#SVGID_46_);}
	.st100{fill:#F6F6F7;stroke:#F6F6F7;stroke-miterlimit:10;}
	.st101{fill:url(#SVGID_47_);}
	.st102{fill:url(#SVGID_48_);}
	.st103{opacity:0.67;}
	.st104{fill:url(#SVGID_49_);}
	.st105{fill:none;stroke:#B3B3B3;stroke-miterlimit:10;}
	.st106{fill-rule:evenodd;clip-rule:evenodd;fill:#808080;}
	.st107{fill:#808080;}
	.st108{fill:url(#SVGID_50_);}
	.st109{fill-rule:evenodd;clip-rule:evenodd;fill:#EEEEEE;}
	.st110{fill-rule:evenodd;clip-rule:evenodd;fill:#F2F2F2;}
	.st111{fill:#9B999F;}
	.st112{fill:#FFFFFF;stroke:#B3B3B3;stroke-miterlimit:10;}
</style>
<path
   class="st90"
   d="M10.2,8.9c-1.4,1.4-2.7,2.7-4.1,4.1c-0.1,0.1-0.3,0.3-0.4,0.5C5.6,13.7,5.7,14,6,14.2c0.2,0.2,0.5,0.3,0.8,0.1  c0.1-0.1,0.2-0.2,0.4-0.3c1.5-1.5,3-3,4.5-4.5c0.5-0.5,0.5-0.9,0-1.4c-1.5-1.5-3-3-4.5-4.5C6.7,3.2,6.3,3.1,5.9,3.5  C5.6,3.8,5.7,4.3,6.1,4.7C7.4,6.1,8.8,7.4,10.2,8.9z"
   id="path4" />
<path
   style="stroke-width:0.07881356;fill:#f4a300;fill-opacity:1"
   d="M 5.9661315,14.115413 C 5.4910194,13.671592 5.4839178,13.68194 7.9808324,11.179566 L 10.240309,8.9151502 9.2867445,7.9056683 C 8.762284,7.3504534 7.8659078,6.4351273 7.2947972,5.8716103 6.7236867,5.3080933 6.1537593,4.7087149 6.0282919,4.5396581 5.403226,3.6974343 6.1870285,2.9134126 7.029658,3.5380121 7.1987147,3.6633255 8.3720432,4.8071073 9.6370546,6.0797494 11.93771,8.3942828 12.101288,8.5969895 11.998587,9.0061817 c -0.02472,0.098484 -1.212055,1.3397983 -2.6385272,2.7584743 -2.4214414,2.408209 -2.6120225,2.579412 -2.871369,2.579412 -0.1977574,0 -0.3483007,-0.06587 -0.5225593,-0.228655 z"
   id="path13"
   inkscape:connector-curvature="0" /><path
   style="fill:#f4a300;fill-opacity:1;stroke-width:0.0069662"
   d="M 5.7291386,13.694515 C 5.7561453,13.549956 5.901364,13.338477 6.2058692,13.000264 6.4965787,12.677375 6.8006772,12.367428 8.4069382,10.756871 9.1883908,9.9733286 9.9212297,9.2381039 10.035469,9.1230385 L 10.243177,8.9138288 9.7368987,8.3776551 C 8.8257856,7.4127412 8.5438435,7.1223547 7.5051199,6.0790327 6.5334164,5.1030273 6.1534813,4.7054257 6.0267668,4.5319377 5.9930467,4.4857706 5.9237696,4.3753479 5.9237696,4.3677675 c 0,-0.00325 0.4451005,-0.0059 0.9891121,-0.0059 H 7.9019938 L 8.2765155,4.730216 c 0.3863728,0.3800044 1.8361695,1.8312066 2.2419095,2.2440829 0.460104,0.468196 0.821896,0.8497386 1.022813,1.0786471 0.399588,0.4552585 0.507185,0.6588558 0.468079,0.8857152 -0.0093,0.053915 -0.01609,0.073022 -0.03669,0.1031047 C 11.815841,9.2707824 10.559138,10.57076 8.984539,12.132748 8.2049308,12.906112 7.76704,13.336733 7.4982553,13.594356 L 7.3625388,13.724438 H 6.5430436 5.7235485 Z"
   id="path820"
   inkscape:connector-curvature="0" /><path
   style="fill:#f4a300;fill-opacity:1;stroke-width:0.0069662"
   d="m 5.6660202,13.670172 c 0,-0.09463 0.027696,-0.16776 0.1102062,-0.290986 0.1024569,-0.153016 0.1527052,-0.204418 2.3093157,-2.36238 L 10.203203,8.897819 10.036663,8.7216319 C 9.5450223,8.201514 9.1616898,7.8103979 8.0066635,6.6504133 6.9186819,5.5577611 6.6567586,5.2898287 6.1876029,4.7896196 5.9855937,4.5742394 5.9403981,4.5185342 5.8617442,4.3879875 l -0.015739,-0.026123 h 0.03493 c 0.027899,0 0.035755,0.0026 0.03903,0.01292 0.00226,0.00711 0.028599,0.050209 0.058542,0.095785 0.127036,0.1933629 0.4214382,0.5055694 1.470815,1.5597648 C 8.5662318,7.1523726 8.8035278,7.3971904 9.9002967,8.559 L 10.235684,8.9142763 9.7391075,9.4123596 C 6.469381,12.692009 6.4080463,12.75439 6.091822,13.121861 5.8649095,13.385547 5.7492951,13.562721 5.7267595,13.681303 l -0.0082,0.04313 h -0.026271 -0.026271 z"
   id="path822"
   inkscape:connector-curvature="0" /><path
   style="fill:#f4a300;fill-opacity:1;stroke-width:0.0069662"
   d="m 7.481266,13.618261 c 0.6367731,-0.609604 2.3611016,-2.323916 3.151655,-3.133348 0.7628,-0.7810157 1.268029,-1.3226355 1.348141,-1.4452451 0.04267,-0.065312 0.054,-0.2082536 0.02484,-0.3134791 C 11.945651,8.5087753 11.712099,8.2091708 11.107222,7.5733486 10.665401,7.1089238 9.3793889,5.8109958 8.542972,4.9853392 7.974638,4.4243167 7.9167243,4.3651271 7.934079,4.363031 c 0.017247,-0.00208 0.2113893,0.1898395 1.9272931,1.9052558 1.0494629,1.0491647 1.9332289,1.9373527 1.9639249,1.9737511 0.130585,0.1548465 0.209845,0.3050116 0.236103,0.4473172 0.0139,0.075348 0.0096,0.1877744 -0.01017,0.2651673 -0.03148,0.1232622 -0.109534,0.2638526 -0.223257,0.4021076 -0.02994,0.036398 -1.02186,1.034045 -2.2042679,2.216993 l -2.1498322,2.150815 h -0.051756 -0.051756 z"
   id="path824"
   inkscape:connector-curvature="0" /><path
   style="fill:#f4a300;fill-opacity:1;stroke-width:0.0069662"
   d="M 6.3602101,14.396477 C 6.2593582,14.37737 6.145794,14.321362 6.0606116,14.248719 c -0.023539,-0.02007 -0.064742,-0.05329 -0.091562,-0.07381 -0.1070907,-0.08194 -0.1794374,-0.161264 -0.2307228,-0.252971 -0.029534,-0.05281 -0.06511,-0.150053 -0.065247,-0.178343 -8.11e-5,-0.01666 0.00263,-0.01916 0.020805,-0.01916 0.018986,0 0.020899,0.0021 0.020899,0.02292 0,0.03058 0.017558,0.09648 0.034609,0.129902 0.024338,0.04771 0.094996,0.128697 0.1840164,0.210926 0.105815,0.09774 0.1650903,0.142938 0.2362658,0.180145 0.1120848,0.05859 0.207013,0.07984 0.3336349,0.07467 0.068563,-0.0028 0.085565,-0.0061 0.1312523,-0.0253 0.1266171,-0.05327 0.31437,-0.201137 0.6371679,-0.501794 l 0.097527,-0.09084 0.052178,-3.15e-4 0.052178,-3.15e-4 -0.1322891,0.132509 c -0.1142101,0.114399 -0.1408572,0.137384 -0.1949848,0.168182 -0.1223776,0.06963 -0.1892847,0.120208 -0.3168823,0.239536 -0.1180287,0.110379 -0.305064,0.162918 -0.4692454,0.131812 z"
   id="path826"
   inkscape:connector-curvature="0" /><path
   style="fill:#f4a300;fill-opacity:1;stroke-width:0.0069662"
   d="M 7.7895175,4.2460544 C 7.4362296,3.9022881 7.1349294,3.6192423 7.048811,3.5502237 6.9034473,3.4337239 6.7155525,3.3476837 6.5454113,3.3197086 6.4582674,3.3053802 6.3331041,3.3100178 6.2546641,3.3304816 5.9217863,3.4173241 5.7393045,3.7414188 5.8190694,4.1041149 c 0.014714,0.066904 0.04932,0.1684069 0.074142,0.2174622 0.00914,0.018072 0.016626,0.034701 0.016626,0.036954 0,0.00225 -0.014867,0.00314 -0.033037,0.00197 L 5.8437638,4.3583812 5.8097287,4.281753 C 5.7910094,4.2396075 5.7662294,4.1690747 5.7546621,4.1250135 5.7358326,4.0532896 5.7335686,4.0335973 5.733038,3.936926 5.7323463,3.8108837 5.7412922,3.7669051 5.7875935,3.6687273 5.822915,3.5938313 5.8653759,3.5360766 5.9285975,3.476936 6.218762,3.2055013 6.5205651,3.1783768 6.8908717,3.3904518 7.093577,3.5065413 7.1141732,3.5243321 7.5588636,3.9674606 7.7819213,4.189735 7.9630312,4.3729876 7.96133,4.3746889 c -0.0017,0.0017 -0.00811,-0.00107 -0.014242,-0.00616 -0.00918,-0.00762 -0.012145,-0.00764 -0.016793,-1.184e-4 -0.00404,0.00653 -0.044149,-0.028333 -0.1407775,-0.1223561 z"
   id="path828"
   inkscape:connector-curvature="0" /></svg>